#!OML:ASF F:\VICON\USERDATA\INSTALL\rory3\rory3.ASF
:FULLY-SPECIFIED
:DEGREES
3047
root 1.55892 18.0853 1.2332 1.30874 33.3155 -15.1955
lowerback 7.89651 1.79352 1.48539
upperback -2.56337 2.08044 -8.42824
thorax -6.80971 0.784816 -10.2351
lowerneck -23.8085 -14.6491 -14.1523
upperneck 3.29237 -17.9094 20.0655
head 8.06695 -7.26417 6.13477
rclavicle 3.89618e-014 1.59028e-014
rhumerus 48.299 -20.1045 -4.9564
rradius 40.5423
rwrist 49.1153
rhand -63.1005 1.99031
rfingers 7.12502
rthumb -35.0983 -24.5427
lclavicle 3.89618e-014 1.59028e-014
lhumerus 76.2583 -56.8156 38.4357
lradius 41.2221
lwrist -28.4284
lhand -28.1794 41.8985
lfingers 7.12502
lthumb -1.55919 -288.127
rfemur -5.10405 -4.16729 23.1115
rtibia 19.8971
rfoot -17.1589 -24.1109
rtoes 2.16185
lfemur -21.0016 -1.85759 -5.26001
ltibia 30.0015
lfoot -14.8819 -7.53873
ltoes -6.94398
3048
root 1.54618 18.0834 1.22123 1.51604 33.5661 -15.0216
lowerback 8.04952 1.81085 1.42765
upperback -2.49286 2.09446 -8.49594
thorax -6.81943 0.794623 -10.2858
lowerneck -24.077 -14.807 -14.0454
upperneck 3.09681 -18.0561 19.913
head 8.03538 -7.32941 6.02854
rclavicle -4.13472e-014 6.36111e-014
rhumerus 49.4968 -22.1325 -7.84214
rradius 39.1617
rwrist 48.1791
rhand -62.6166 -1.19932
rfingers 7.12502
rthumb -34.6392 -27.8389
lclavicle -4.13472e-014 6.36111e-014
lhumerus 76.2583 -56.8156 38.4357
lradius 41.2221
lwrist -28.4284
lhand -28.1794 41.8985
lfingers 7.12502
lthumb -1.55919 -288.127
rfemur -5.24448 -4.45005 23.0402
rtibia 19.8259
rfoot -17.4405 -24.1403
rtoes 2.48176
lfemur -21.3615 -1.97657 -5.42218
ltibia 30.1376
lfoot -14.8385 -7.58741
ltoes -7.32238
3049
root 1.5384 18.082 1.21002 1.70131 33.8496 -15.0662
lowerback 8.03829 1.81818 1.59158
upperback -2.49144 2.12349 -8.48761
thorax -6.80093 0.80289 -10.377
lowerneck -23.8641 -14.8716 -14.2101
upperneck 2.64354 -18.0555 20.0059
head 7.87966 -7.3517 6.09371
rclavicle 1.27222e-014 -1.59028e-014
rhumerus 50.8686 -24.0943 -10.7657
rradius 37.7528
rwrist 47.2371
rhand -61.7618 -1.84723
rfingers 7.12502
rthumb -33.8275 -28.6691
lclavicle 1.27222e-014 -1.59028e-014
lhumerus 76.2583 -56.8156 38.4357
lradius 41.2221
lwrist -28.4284
lhand -28.1794 41.8985
lfingers 7.12502
lthumb -1.55919 -288.127
rfemur -5.43034 -4.89963 23.1519
rtibia 19.6857
rfoot -17.4632 -24.0649
rtoes 2.71934
lfemur -21.8163 -2.13647 -5.39089
ltibia 30.293
lfoot -14.8289 -7.60342
ltoes -7.42674
3050
root 1.52987 18.0801 1.19836 1.81026 34.1772 -15.2083
lowerback 8.04204 1.81776 1.77319
upperback -2.49011 2.14589 -8.42453
thorax -6.79319 0.807608 -10.4163
lowerneck -23.753 -14.8964 -14.242
upperneck 2.33838 -18.0273 19.946
head 7.75167 -7.35942 6.09053
rclavicle 6.36111e-015 -3.18055e-014
rhumerus 52.3276 -25.9919 -13.5942
rradius 36.3933
rwrist 46.0438
rhand -60.9233 -3.48913
rfingers 7.12502
rthumb -33.0303 -30.4829
lclavicle 6.36111e-015 -3.18055e-014
lhumerus 76.2583 -56.8156 38.4357
lradius 41.2221
lwrist -28.4284
lhand -28.1794 41.8985
lfingers 7.12502
lthumb -1.55919 -288.127
rfemur -5.57188 -5.31494 23.3333
rtibia 19.4969
rfoot -17.4199 -24.0364
rtoes 2.64331
lfemur -22.2675 -2.26857 -5.26231
ltibia 30.4514
lfoot -14.8048 -7.66792
ltoes -7.41138
3051
root 1.51906 18.0774 1.19246 1.8746 34.4596 -15.4136
lowerback 8.0475 1.83112 1.94493
upperback -2.53452 2.18159 -8.39613
thorax -6.83257 0.815433 -10.4945
lowerneck -23.7153 -14.9248 -14.054
upperneck 2.21485 -18.0797 19.8003
head 7.67718 -7.39818 6.00567
rclavicle -5.56597e-014 -6.36111e-015
rhumerus 54.1306 -27.9181 -16.9717
rradius 34.759
rwrist 44.9916
rhand -60.3653 -4.73974
rfingers 7.12502
rthumb -32.4995 -31.8442
lclavicle -5.56597e-014 -6.36111e-015
lhumerus 76.2583 -56.8156 38.4357
lradius 41.2221
lwrist -28.4284
lhand -28.1794 41.8985
lfingers 7.12502
lthumb -1.55919 -288.127
rfemur -5.67105 -5.546 23.579
rtibia 19.2278
rfoot -17.7561 -24.0497
rtoes 3.45039
lfemur -22.7064 -2.28418 -5.07158
ltibia 30.62
lfoot -14.8338 -7.75147
ltoes -7.98346
3052
root 1.50609 18.074 1.18422 1.98773 34.8344 -15.3853
lowerback 8.15812 1.81996 1.89489
upperback -2.57746 2.15773 -8.37182
thorax -6.94975 0.80031 -10.4449
lowerneck -23.6748 -14.9354 -13.7902
upperneck 2.14537 -18.1037 19.4339
head 7.57824 -7.43814 5.84377
rclavicle 5.56597e-014 -9.85972e-014
rhumerus 56.4289 -29.7831 -20.8208
rradius 32.9718
rwrist 44.2249
rhand -59.0722 -5.94116
rfingers 7.12502
rthumb -31.2681 -33.2912
lclavicle 5.56597e-014 -9.85972e-014
lhumerus 76.2583 -56.8156 38.4357
lradius 41.2221
lwrist -28.4284
lhand -28.1794 41.8985
lfingers 7.12502
lthumb -1.55919 -288.127
rfemur -5.65698 -5.81416 23.615
rtibia 18.9239
rfoot -18.0038 -24.1176
rtoes 4.09848
lfemur -23.0875 -2.3888 -5.1046
ltibia 30.7689
lfoot -14.811 -7.86876
ltoes -8.53028
3053
root 1.49145 18.0706 1.17527 2.16648 35.2663 -15.3582
lowerback 8.14984 1.78555 1.89368
upperback -2.56816 2.11397 -8.34937
thorax -6.94403 0.779994 -10.4117
lowerneck -23.5771 -14.967 -13.779
upperneck 1.90836 -18.1179 19.4222
head 7.48527 -7.4584 5.84116
rclavicle -2.78299e-014 -4.13472e-014
rhumerus 58.4369 -31.4602 -24.1786
rradius 31.8019
rwrist 42.8811
rhand -57.8778 -7.60897
rfingers 7.12502
rthumb -30.1293 -35.1727
lclavicle -2.78299e-014 -4.13472e-014
lhumerus 76.2583 -56.8156 38.4357
lradius 41.2221
lwrist -28.4284
lhand -28.1794 41.8985
lfingers 7.12502
lthumb -1.55919 -288.127
rfemur -5.70536 -6.07177 23.6665
rtibia 18.6061
rfoot -18.0275 -24.2724
rtoes 3.81042
lfemur -23.5467 -2.54408 -5.11449
ltibia 30.8817
lfoot -14.8117 -8.03713
ltoes -8.8813
3054
root 1.47822 18.067 1.16734 2.27926 35.6605 -15.398
lowerback 8.18285 1.7621 1.93704
upperback -2.58431 2.08874 -8.29356
thorax -6.9855 0.764605 -10.3741
lowerneck -23.4236 -15.016 -13.8922
upperneck 1.72567 -18.1591 19.5395
head 7.43472 -7.48525 5.89449
rclavicle -9.70069e-014 -5.08889e-014
rhumerus 59.9027 -32.7202 -26.6379
rradius 31.0777
rwrist 40.6177
rhand -56.6457 -9.00993
rfingers 7.12502
rthumb -28.9531 -36.7817
lclavicle -9.70069e-014 -5.08889e-014
lhumerus 76.2583 -56.8156 38.4357
lradius 41.2221
lwrist -28.4284
lhand -28.1794 41.8985
lfingers 7.12502
lthumb -1.55919 -288.127
rfemur -5.71198 -6.32506 23.7654
rtibia 18.2984
rfoot -17.9966 -24.3592
rtoes 3.34216
lfemur -23.9403 -2.57706 -5.07379
ltibia 30.96
lfoot -14.6989 -8.34534
ltoes -8.74553
3055
root 1.46806 18.0645 1.15715 2.496 35.9871 -15.3778
lowerback 8.19804 1.75355 1.98909
upperback -2.64076 2.07938 -8.31326
thorax -7.05508 0.752927 -10.4319
lowerneck -23.3783 -15.0471 -13.7666
upperneck 1.58522 -18.2195 19.5459
head 7.38153 -7.51834 5.86855
rclavicle 5.56597e-015 5.725e-014
rhumerus 61.4184 -33.8973 -29.3193
rradius 30.3758
rwrist 38.4615
rhand -55.3432 -9.33584
rfingers 7.12502
rthumb -27.7084 -37.3144
lclavicle 5.56597e-015 5.725e-014
lhumerus 76.2583 -56.8156 38.4357
lradius 41.2221
lwrist -28.4284
lhand -28.1794 41.8985
lfingers 7.12502
lthumb -1.55919 -288.127
rfemur -5.75382 -6.442 23.7923
rtibia 17.9349
rfoot -18.0739 -24.4305
rtoes 2.87065
lfemur -24.3766 -2.56068 -5.09785
ltibia 31.0238
lfoot -14.6262 -8.6282
ltoes -8.35465
